<svg width="32" height="32" viewBox="0 0 32 32" fill="none" xmlns="http://www.w3.org/2000/svg">
<rect width="32" height="32" rx="16" fill="#00DF80" fill-opacity="0.05"/>
<mask id="mask0_802_11001" style="mask-type:alpha" maskUnits="userSpaceOnUse" x="4" y="4" width="24" height="24">
<rect x="4" y="4" width="24" height="24" fill="#D9D9D9"/>
</mask>
<g mask="url(#mask0_802_11001)">
</g>
<rect x="5.5" y="5.5" width="20" height="20" rx="10" fill="#00DF80"/>
<path fill-rule="evenodd" clip-rule="evenodd" d="M20.6296 12.0755C20.8757 12.3368 20.8634 12.7482 20.6021 12.9943L13.9878 19.2234C13.8609 19.3429 13.6914 19.4064 13.5172 19.3998C13.343 19.3931 13.1789 19.3167 13.0615 19.1878L10.4155 16.2818C10.1738 16.0164 10.193 15.6053 10.4585 15.3636C10.7239 15.1219 11.135 15.1412 11.3767 15.4066L13.5777 17.8238L19.7108 12.0479C19.9721 11.8018 20.3835 11.8141 20.6296 12.0755Z" fill="white" stroke="white" stroke-width="0.5" stroke-linecap="round" stroke-linejoin="round"/>
</svg>
