<svg width="32" height="32" viewBox="0 0 32 32" fill="none" xmlns="http://www.w3.org/2000/svg">
<rect width="32" height="32" rx="16" fill="#FFD21E" fill-opacity="0.14"/>
<mask id="mask0_802_10975" style="mask-type:alpha" maskUnits="userSpaceOnUse" x="4" y="4" width="24" height="24">
<rect x="4" y="4" width="24" height="24" fill="#D9D9D9"/>
</mask>
<g mask="url(#mask0_802_10975)">
<path fill-rule="evenodd" clip-rule="evenodd" d="M26 16C26 21.5226 21.5228 26 16.0005 26C10.4772 26 6 21.5226 6 16C6 10.4774 10.4772 6 16.0005 6C21.5228 6 26 10.4774 26 16Z" fill="#FFD21E"/>
<path d="M16 19.8335C16.518 19.8335 16.9373 20.255 16.9375 20.7759V21.0562C16.9374 21.5771 16.5181 21.9985 16 21.9985C15.4819 21.9985 15.0626 21.5771 15.0625 21.0562V20.7759C15.0627 20.255 15.482 19.8335 16 19.8335ZM16 9.99951C16.5181 9.99951 16.9375 10.4209 16.9375 10.9419V17.0386C16.9375 17.5596 16.5181 17.981 16 17.981C15.4819 17.981 15.0625 17.5596 15.0625 17.0386V10.9419C15.0625 10.4209 15.4819 9.99951 16 9.99951Z" fill="white"/>
</g>
</svg>
