<svg width="14" height="14" viewBox="0 0 14 14" fill="none" xmlns="http://www.w3.org/2000/svg">
<path d="M5.17662 5.52695V1.10645H8.82362V5.52695L12.6841 12.9224C12.9396 13.4124 12.5826 14.0004 12.0296 14.0004H1.97062C1.41762 14.0004 1.06062 13.4124 1.31612 12.9224L5.17662 5.52695Z" fill="#AED8FF"/>
<path fill-rule="evenodd" clip-rule="evenodd" d="M10.381 9.91193L11.8545 12.7259C11.984 12.9709 11.8055 13.2649 11.529 13.2649H2.46753C2.19103 13.2649 2.01253 12.9709 2.14203 12.7259L4.32603 8.55393C5.05403 8.48043 6.13903 8.60643 6.81453 9.02643C7.85053 9.67393 9.14553 10.1394 10.381 9.91193Z" fill="#F34C00"/>
<path d="M8.82011 0H5.17661C4.76875 0 4.43811 0.329854 4.43811 0.73675C4.43811 1.14365 4.76875 1.4735 5.17661 1.4735H8.82011C9.22797 1.4735 9.55861 1.14365 9.55861 0.73675C9.55861 0.329854 9.22797 0 8.82011 0Z" fill="#8EB8FF"/>
<path d="M7.8751 8.05C8.16505 8.05 8.4001 7.81495 8.4001 7.525C8.4001 7.23505 8.16505 7 7.8751 7C7.58515 7 7.3501 7.23505 7.3501 7.525C7.3501 7.81495 7.58515 8.05 7.8751 8.05Z" fill="white"/>
<path d="M5.07507 12.25C5.55832 12.25 5.95007 11.8582 5.95007 11.375C5.95007 10.8918 5.55832 10.5 5.07507 10.5C4.59182 10.5 4.20007 10.8918 4.20007 11.375C4.20007 11.8582 4.59182 12.25 5.07507 12.25Z" fill="white"/>
<path d="M8.75002 11.2C8.94332 11.2 9.10002 11.0433 9.10002 10.85C9.10002 10.6567 8.94332 10.5 8.75002 10.5C8.55672 10.5 8.40002 10.6567 8.40002 10.85C8.40002 11.0433 8.55672 11.2 8.75002 11.2Z" fill="white"/>
</svg>
