<svg width="20" height="20" viewBox="0 0 20 20" fill="none" xmlns="http://www.w3.org/2000/svg">
<path d="M15.4756 3.39258C15.788 3.08016 16.295 3.08016 16.6074 3.39258C16.9196 3.7049 16.9195 4.21104 16.6074 4.52344L11.1309 9.99902L16.6074 15.4756C16.9198 15.788 16.9198 16.295 16.6074 16.6074C16.295 16.9198 15.788 16.9198 15.4756 16.6074L9.99902 11.1309L4.52344 16.6074C4.21104 16.9195 3.7049 16.9196 3.39258 16.6074C3.08016 16.295 3.08016 15.788 3.39258 15.4756L8.86816 9.99902L3.39258 4.52344C3.08035 4.211 3.08022 3.70493 3.39258 3.39258C3.70493 3.08022 4.211 3.08035 4.52344 3.39258L9.99902 8.86816L15.4756 3.39258Z" fill="#47484C"/>
</svg>
