<svg width="20" height="20" viewBox="0 0 20 20" fill="none" xmlns="http://www.w3.org/2000/svg">
<circle cx="9.99984" cy="10.0003" r="8.33333" fill="#A7ACB6"/>
<path fill-rule="evenodd" clip-rule="evenodd" d="M6.64887 6.64839C6.90922 6.38804 7.33133 6.38804 7.59168 6.64838L13.3518 12.4084C13.6122 12.6687 13.6122 13.0908 13.3518 13.3512C13.0915 13.6115 12.6694 13.6115 12.409 13.3512L6.64888 7.5912C6.38853 7.33086 6.38852 6.90875 6.64887 6.64839Z" fill="white"/>
<path fill-rule="evenodd" clip-rule="evenodd" d="M13.3518 6.64839C13.6122 6.90875 13.6122 7.33086 13.3518 7.5912L7.59168 13.3512C7.33133 13.6115 6.90922 13.6115 6.64887 13.3512C6.38852 13.0908 6.38853 12.6687 6.64888 12.4084L12.409 6.64838C12.6694 6.38804 13.0915 6.38804 13.3518 6.64839Z" fill="white"/>
</svg>
