<svg width="200" height="201" viewBox="0 0 200 201" fill="none" xmlns="http://www.w3.org/2000/svg">
<g clip-path="url(#clip0_802_11129)">
<rect y="0.5" width="200" height="200" rx="100" fill="#DFEAFC"/>
<rect x="35.668" y="47.1667" width="128" height="153.333" rx="8" fill="white"/>
<rect x="55.668" y="75.1667" width="56.6495" height="8" rx="4" fill="#EDF0F5"/>
<rect x="55.668" y="93.1667" width="88.5146" height="8" rx="4" fill="#B9CAF1"/>
<rect x="55.668" y="111.167" width="68.9633" height="8" rx="4" fill="#EDF0F5"/>
<rect x="55.668" y="129.167" width="88.5146" height="8" rx="4" fill="#AFC7FD"/>
<rect x="55.668" y="147.167" width="68.9633" height="8" rx="4" fill="#EDF0F5"/>
<rect x="55.668" y="165.167" width="88.5146" height="8" rx="4" fill="#B1CAFE"/>
<path fill-rule="evenodd" clip-rule="evenodd" d="M132.717 71.1667C120.699 71.1667 110.957 80.909 110.957 92.9267C110.957 104.944 120.699 114.687 132.717 114.687C137.57 114.687 142.055 113.097 145.675 110.41L153.494 118.229C154.744 119.479 156.77 119.479 158.02 118.229C159.269 116.98 159.269 114.954 158.02 113.704L150.2 105.884C152.887 102.265 154.477 97.78 154.477 92.9267C154.477 80.909 144.735 71.1667 132.717 71.1667ZM117.357 92.9267C117.357 84.4437 124.234 77.5667 132.717 77.5667C141.2 77.5667 148.077 84.4437 148.077 92.9267C148.077 101.41 141.2 108.287 132.717 108.287C124.234 108.287 117.357 101.41 117.357 92.9267Z" fill="#D4DAE2"/>
<circle cx="132.692" cy="92.958" r="15.5044" fill="white" fill-opacity="0.6"/>
</g>
<defs>
<clipPath id="clip0_802_11129">
<rect y="0.5" width="200" height="200" rx="100" fill="white"/>
</clipPath>
</defs>
</svg>
