<svg width="22" height="25" viewBox="0 0 22 25" fill="none" xmlns="http://www.w3.org/2000/svg">
<rect y="0.5" width="22" height="23.8333" rx="3.66667" fill="#15AC7E"/>
<path fill-rule="evenodd" clip-rule="evenodd" d="M4.20117 8.78341C4.20117 8.25874 4.49032 7.83341 4.84701 7.83341H17.7637C18.1204 7.83341 18.4095 8.25874 18.4095 8.78341C18.4095 9.30808 18.1204 9.73341 17.7637 9.73341H4.84701C4.49032 9.73341 4.20117 9.30808 4.20117 8.78341Z" fill="white"/>
<path fill-rule="evenodd" clip-rule="evenodd" d="M8.21797 5.0835C8.74264 5.0835 9.16797 5.46976 9.16797 5.94624L9.16797 18.8874C9.16797 19.3639 8.74264 19.7502 8.21797 19.7502C7.6933 19.7502 7.26797 19.3639 7.26797 18.8874L7.26797 5.94624C7.26797 5.46976 7.6933 5.0835 8.21797 5.0835Z" fill="white"/>
</svg>
