<svg width="14" height="12" viewBox="0 0 14 12" fill="none" xmlns="http://www.w3.org/2000/svg">
<path fill-rule="evenodd" clip-rule="evenodd" d="M2.42014 0.396639C2.76883 0.13909 3.1909 7.86829e-05 3.62439 0H10.363C10.7965 7.86829e-05 11.2187 0.139091 11.5674 0.396639C11.9161 0.654187 12.173 1.01671 12.3006 1.43102L13.8961 6.6207C13.9105 6.66733 13.9232 6.71446 13.9342 6.762C13.9675 6.83201 13.9862 6.91037 13.9862 6.99308C13.9862 7.01908 13.9843 7.04464 13.9808 7.06964C13.9844 7.11855 13.9862 7.16766 13.9862 7.21686V9.97239C13.9862 10.5101 13.7726 11.0259 13.3923 11.4061C13.0121 11.7863 12.4963 12 11.9586 12H2.02758C1.48983 12 0.974111 11.7863 0.593865 11.4061C0.21362 11.0259 0 10.5101 0 9.97239V7.21686C5.05956e-05 7.16797 0.00187031 7.11858 0.00544432 7.06991C0.00185641 7.04482 0 7.01917 0 6.99308C0 6.91035 0.0186769 6.83198 0.0520446 6.76196C0.0629883 6.71459 0.075643 6.66759 0.0899946 6.62104L1.6869 1.43109C1.81445 1.01679 2.07144 0.654187 2.42014 0.396639ZM1.07586 7.53101V9.97239C1.07586 10.2248 1.17613 10.4669 1.35461 10.6454C1.5331 10.8238 1.77517 10.9241 2.02758 10.9241H11.9586C12.211 10.9241 12.4531 10.8238 12.6316 10.6454C12.8101 10.4669 12.9103 10.2248 12.9103 9.97239V7.53101H10.8933C10.7165 7.53098 10.5431 7.58019 10.3927 7.67314C10.2423 7.76608 10.1208 7.89907 10.0418 8.05721L9.87227 8.39619C9.87226 8.39621 9.87228 8.39617 9.87227 8.39619C9.70386 8.73307 9.44493 9.01644 9.12454 9.21444C8.80416 9.41243 8.43498 9.51727 8.05836 9.51722M12.7196 6.45515H10.8934C10.8934 6.45515 10.8935 6.45515 10.8934 6.45515C10.5168 6.4551 10.1475 6.55995 9.82715 6.75793C9.50677 6.95593 9.24786 7.23925 9.07945 7.57613C9.07944 7.57614 9.07946 7.57611 9.07945 7.57613L8.90996 7.9151C8.83092 8.07324 8.70935 8.20629 8.55896 8.29924C8.40857 8.39218 8.23526 8.44139 8.05846 8.44136H5.92782C5.75103 8.44139 5.57762 8.39218 5.42722 8.29924C5.27683 8.2063 5.1553 8.0733 5.07625 7.91516L4.90676 7.57618C4.90675 7.57616 4.90677 7.5762 4.90676 7.57618C4.73842 7.23944 4.47963 6.95616 4.15941 6.75817C3.83918 6.56018 3.47015 6.45525 3.09365 6.45515H1.26667L2.71516 1.74756C2.71516 1.74759 2.71517 1.74754 2.71516 1.74756C2.77504 1.55312 2.89567 1.38291 3.05933 1.26204C3.22297 1.14117 3.42105 1.07592 3.62449 1.07586C3.62446 1.07586 3.62452 1.07586 3.62449 1.07586H10.3629C10.3629 1.07586 10.363 1.07586 10.3629 1.07586C10.5664 1.07592 10.7645 1.14117 10.9282 1.26204C11.0919 1.38293 11.2125 1.55309 11.2723 1.74756L12.7196 6.45515ZM1.07586 7.53101H3.09337C3.09333 7.53101 3.09342 7.53101 3.09337 7.53101C3.27005 7.53109 3.44336 7.58033 3.59363 7.67325C3.74394 7.76618 3.86541 7.89914 3.94443 8.05721L4.11392 8.39619C4.11391 8.39617 4.11392 8.39621 4.11392 8.39619C4.28232 8.73307 4.54126 9.01644 4.86164 9.21444C5.18202 9.41243 5.55121 9.51727 5.92782 9.51722C5.92779 9.51722 5.92786 9.51722 5.92782 9.51722H8.05836" fill="#47484C"/>
</svg>
