<svg width="23" height="24" viewBox="0 0 23 24" fill="none" xmlns="http://www.w3.org/2000/svg">
<rect width="23" height="24" rx="11.5" fill="#F8FAFD"/>
<path fill-rule="evenodd" clip-rule="evenodd" d="M9.17066 13.82C9.43587 14.0852 9.43587 14.5152 9.17066 14.7804L6.9069 17.0442C6.64169 17.3094 6.21169 17.3094 5.94647 17.0442C5.68125 16.779 5.68125 16.349 5.94647 16.0838L8.21023 13.82C8.47544 13.5548 8.90544 13.5548 9.17066 13.82Z" fill="#FF9A3B"/>
<path fill-rule="evenodd" clip-rule="evenodd" d="M13.4197 4.64145C13.6082 4.45299 13.9137 4.45283 14.1023 4.64108L18.3582 8.88789C18.4489 8.97843 18.4999 9.10131 18.5 9.22949C18.5001 9.35766 18.4492 9.4806 18.3586 9.57123L14.2824 13.6474C14.7817 14.8647 14.5711 16.3043 13.6391 17.3324C13.5503 17.4303 13.4253 17.4876 13.2931 17.4908C13.161 17.494 13.0333 17.443 12.9398 17.3495L5.64145 10.0511C5.54798 9.95768 5.49691 9.82998 5.50015 9.69783C5.50338 9.56569 5.56064 9.44064 5.65858 9.35186C6.68849 8.4182 8.13133 8.20846 9.34999 8.71118L13.4197 4.64145Z" fill="#FACA5C"/>
</svg>
