<svg width="14" height="3" viewBox="0 0 14 3" fill="none" xmlns="http://www.w3.org/2000/svg">
<path fill-rule="evenodd" clip-rule="evenodd" d="M1.50004 0C2.32848 0 3.00007 0.671589 3.00007 1.50004C3.00007 2.32848 2.32848 3.00007 1.50004 3.00007C0.671589 3.00007 0 2.32848 0 1.50004C0 0.671589 0.671589 0 1.50004 0ZM6.75053 0C7.57898 0 8.25057 0.671589 8.25057 1.50004C8.25057 2.32848 7.57898 3.00007 6.75053 3.00007C5.92208 3.00007 5.25049 2.32848 5.25049 1.50004C5.25049 0.671589 5.92208 0 6.75053 0ZM11.999 0C12.8275 0 13.4991 0.671589 13.4991 1.50004C13.4991 2.32848 12.8275 3.00007 11.999 3.00007C11.1706 3.00007 10.499 2.32848 10.499 1.50004C10.499 0.671589 11.1706 0 11.999 0Z" fill="#47484C"/>
</svg>
