<svg width="19" height="19" viewBox="0 0 19 19" fill="none" xmlns="http://www.w3.org/2000/svg">
<path fill-rule="evenodd" clip-rule="evenodd" d="M5.34311 8.31219C5.99895 8.31219 6.53061 8.84386 6.53061 9.4997C6.53061 10.1555 5.99895 10.6872 5.34311 10.6872C4.68727 10.6872 4.15561 10.1555 4.15561 9.4997C4.15561 8.84386 4.68727 8.31219 5.34311 8.31219ZM9.4997 8.31219C10.1555 8.31219 10.6872 8.84386 10.6872 9.4997C10.6872 10.1555 10.1555 10.6872 9.4997 10.6872C8.84386 10.6872 8.31219 10.1555 8.31219 9.4997C8.31219 8.84386 8.84386 8.31219 9.4997 8.31219ZM13.6553 8.31219C14.3111 8.31219 14.8428 8.84386 14.8428 9.4997C14.8428 10.1555 14.3111 10.6872 13.6553 10.6872C12.9995 10.6872 12.4678 10.1555 12.4678 9.4997C12.4678 8.84386 12.9995 8.31219 13.6553 8.31219Z" fill="#47484C"/>
</svg>
