<svg width="19" height="20" viewBox="0 0 19 20" fill="none" xmlns="http://www.w3.org/2000/svg">
<path fill-rule="evenodd" clip-rule="evenodd" d="M1.83583 7.24299C1.83583 3.23845 5.07428 0 9.07881 0C13.0733 0 16.3118 3.23845 16.3118 7.23296V13.3397L17.921 14.9402C18.0725 15.0908 18.1576 15.2956 18.1576 15.5092V16.4422C18.1576 16.8854 17.7983 17.2447 17.3551 17.2447H12.5444C12.1792 18.8235 10.7644 20.0001 9.0746 20.0001C7.38478 20.0001 5.97001 18.8235 5.60485 17.2447H0.802547C0.359313 17.2447 0 16.8854 0 16.4422V15.5092C0 15.2956 0.0851586 15.0908 0.236618 14.9402L1.83583 13.3497V7.24299ZM6.38957 15.6396C6.36529 15.6374 6.3407 15.6363 6.31585 15.6363C6.29099 15.6363 6.2664 15.6374 6.24212 15.6396H1.80951L3.2043 14.2525C3.35576 14.1018 3.44092 13.897 3.44092 13.6834V7.24299C3.44092 4.12492 5.96075 1.60509 9.07881 1.60509C12.1869 1.60509 14.7067 4.12492 14.7067 7.23296V13.6734C14.7067 13.8862 14.7912 14.0904 14.9417 14.2409L14.9518 14.2509L14.9533 14.2525L16.3481 15.6396H6.38957ZM7.29153 17.2447C7.59858 17.9231 8.2814 18.3951 9.0746 18.3951C9.8678 18.3951 10.5506 17.9231 10.8577 17.2447H7.29153Z" fill="#47484C"/>
</svg>
