<svg width="120" height="25" viewBox="0 0 120 25" fill="none" xmlns="http://www.w3.org/2000/svg">
<path d="M107.268 24.2098C105.224 24.2098 103.321 24.0119 101.562 23.6161C99.8033 23.1983 98.275 22.5166 96.9777 21.5711C96.6096 21.2966 96.2655 20.9956 95.9452 20.668C94.6072 19.2995 95.6244 17.1911 97.4595 16.6477C98.8611 16.2327 100.318 16.9291 101.43 17.877C102.046 18.3607 102.849 18.7235 103.838 18.9654C104.828 19.1853 106.103 19.2952 107.664 19.2952C109.577 19.2952 111.029 19.0863 112.018 18.6686C113.008 18.2508 113.502 17.712 113.502 17.0524C113.502 16.5466 113.26 16.1178 112.777 15.766C112.293 15.4142 111.369 15.1613 110.006 15.0074L103.64 14.2158C100.694 13.842 98.4949 13.1164 97.0437 12.0389C95.5924 10.9615 94.8668 9.46621 94.8668 7.55318C94.8668 5.86004 95.3725 4.46374 96.384 3.3643C97.3955 2.24287 98.8248 1.40729 100.672 0.857567C102.541 0.285856 104.718 0 107.203 0C109.006 0 110.721 0.186906 112.348 0.560717C113.997 0.934528 115.459 1.57221 116.735 2.47375C117.148 2.76095 117.533 3.08496 117.891 3.44579C119.168 4.7352 118.264 6.74346 116.531 7.28081C115.155 7.70707 113.737 6.98047 112.56 6.15206C112.195 5.89551 111.795 5.69189 111.358 5.5412C110.171 5.12341 108.61 4.91452 106.675 4.91452C105.048 4.91452 103.739 5.09043 102.75 5.44225C101.782 5.77208 101.299 6.25584 101.299 6.89351C101.299 7.44324 101.562 7.88301 102.09 8.21285C102.64 8.54268 103.53 8.78456 104.762 8.93848L111.754 9.79605C114.613 10.1479 116.702 10.8845 118.021 12.0059C119.34 13.1274 120 14.6116 120 16.4587C120 18.1738 119.472 19.6141 118.417 20.7795C117.361 21.9229 115.877 22.7805 113.964 23.3522C112.051 23.9239 109.819 24.2098 107.268 24.2098Z" fill="#333333"/>
<path d="M87.9015 24.1122C86.0833 24.1122 84.6094 22.6383 84.6094 20.8201V11.8044C84.6094 9.98628 86.0833 8.51237 87.9015 8.51237C89.7196 8.51237 91.1936 9.98627 91.1936 11.8044V20.8201C91.1936 22.6383 89.7196 24.1122 87.9015 24.1122Z" fill="#333333"/>
<circle cx="87.9306" cy="3.58769" r="3.55029" fill="url(#paint0_linear_0_13)"/>
<path d="M69.3248 24.2098C67.2798 24.2098 65.3778 24.0119 63.6187 23.6161C61.8595 23.1983 60.3313 22.5166 59.034 21.5711C58.6659 21.2966 58.3218 20.9956 58.0015 20.668C56.6635 19.2995 57.6806 17.1911 59.5158 16.6477C60.9174 16.2327 62.374 16.9291 63.4867 17.877C64.1024 18.3607 64.905 18.7235 65.8945 18.9654C66.884 19.1853 68.1594 19.2952 69.7206 19.2952C71.6336 19.2952 73.0849 19.0863 74.0744 18.6686C75.0639 18.2508 75.5586 17.712 75.5586 17.0524C75.5586 16.5466 75.3167 16.1178 74.833 15.766C74.3492 15.4142 73.4257 15.1613 72.0624 15.0074L65.6966 14.2158C62.7501 13.842 60.5512 13.1164 59.0999 12.0389C57.6487 10.9615 56.923 9.46621 56.923 7.55318C56.923 5.86004 57.4288 4.46374 58.4403 3.3643C59.4518 2.24287 60.881 1.40729 62.7281 0.857567C64.5972 0.285856 66.7741 0 69.2588 0C71.0619 0 72.777 0.186906 74.4042 0.560717C76.0534 0.934528 77.5156 1.57221 78.791 2.47375C79.2043 2.76095 79.5897 3.08496 79.9471 3.44579C81.2246 4.7352 80.3206 6.74346 78.5869 7.28081C77.2116 7.70707 75.7937 6.98047 74.6161 6.15206C74.2514 5.89551 73.8509 5.69189 73.4147 5.5412C72.2273 5.12341 70.6661 4.91452 68.7311 4.91452C67.1039 4.91452 65.7956 5.09043 64.8061 5.44225C63.8385 5.77208 63.3548 6.25584 63.3548 6.89351C63.3548 7.44324 63.6187 7.88301 64.1464 8.21285C64.6961 8.54268 65.5867 8.78456 66.818 8.93848L73.8105 9.79605C76.6691 10.1479 78.758 10.8845 80.0773 12.0059C81.3967 13.1274 82.0563 14.6116 82.0563 16.4587C82.0563 18.1738 81.5286 19.6141 80.4731 20.7795C79.4177 21.9229 77.9334 22.7805 76.0204 23.3522C74.1073 23.9239 71.8755 24.2098 69.3248 24.2098Z" fill="#333333"/>
<path d="M36.8905 3.46398L29.109 19.4318C28.1548 21.3899 29.5807 23.6709 31.7589 23.6709C32.9115 23.6709 33.9584 22.9991 34.4386 21.9513L36.1816 18.1484L40.9059 8.08489C41.2353 7.38313 42.2342 7.38525 42.5607 8.08839L45.1558 13.6778L47.1938 18.1484L48.917 21.8598C49.4298 22.9643 50.5369 23.6709 51.7547 23.6709C54.0665 23.6709 55.5798 21.25 54.5671 19.1718L46.9123 3.46399C45.9784 1.54758 44.0333 0.331676 41.9014 0.331676C39.7696 0.331676 37.8244 1.54758 36.8905 3.46398Z" fill="#333333"/>
<path d="M41.9014 12.6962L41.9202 12.7273C42.0099 12.8588 42.3612 13.2612 42.7952 13.7981C42.8028 13.8074 42.8104 13.8168 42.818 13.8263C43.037 14.0977 43.2762 14.4021 43.5123 14.723C43.5232 14.7377 43.5338 14.7525 43.5446 14.7673C43.5827 14.8194 43.6208 14.8719 43.6586 14.9248C43.6689 14.939 43.6791 14.9534 43.6893 14.9677C43.7234 15.0156 43.7574 15.0638 43.7911 15.1122C43.8066 15.1345 43.8219 15.1569 43.8374 15.1793C43.8688 15.225 43.9 15.2707 43.9309 15.3167C43.9464 15.3398 43.962 15.363 43.9774 15.3862C44.0061 15.4295 44.0345 15.4728 44.0626 15.5162C44.0792 15.5418 44.0957 15.5675 44.112 15.5931C44.1383 15.6344 44.1641 15.6758 44.1897 15.717C44.2077 15.7461 44.2255 15.7752 44.2431 15.8043C44.2664 15.8426 44.2891 15.881 44.3116 15.9193C44.3283 15.9477 44.3451 15.9761 44.3614 16.0045C44.3832 16.0423 44.4043 16.0802 44.4252 16.1179C44.4467 16.1567 44.4682 16.1952 44.4887 16.2337C44.4942 16.2441 44.4998 16.2545 44.5053 16.2648C44.5123 16.2782 44.5192 16.2916 44.5261 16.3049C44.5366 16.3253 44.5471 16.3456 44.5574 16.3659C44.5643 16.3796 44.5712 16.3932 44.578 16.4069C44.5869 16.4248 44.5957 16.4427 44.6044 16.4606C44.6123 16.4769 44.6199 16.4933 44.6276 16.5096C44.6365 16.5282 44.6452 16.5469 44.6538 16.5655C44.6595 16.5778 44.6652 16.5901 44.6708 16.6024C44.6798 16.6223 44.6885 16.6423 44.6972 16.6621C44.7036 16.6767 44.7098 16.6914 44.716 16.7059C44.7231 16.7228 44.7301 16.7395 44.737 16.7563C44.743 16.7709 44.7489 16.7854 44.7547 16.7999C44.7604 16.8142 44.766 16.8284 44.7715 16.8426C44.7794 16.8631 44.7873 16.8834 44.7947 16.9037C44.7985 16.914 44.802 16.9243 44.8057 16.9345C44.8121 16.9526 44.8186 16.9705 44.8247 16.9885C44.8293 17.0019 44.8335 17.0154 44.8379 17.0287C44.8444 17.0487 44.8509 17.0685 44.8569 17.0882C44.8591 17.0954 44.861 17.1027 44.8632 17.1099C44.8694 17.1309 44.8754 17.1516 44.8811 17.1723C44.8842 17.1838 44.8871 17.1952 44.89 17.2065C44.8949 17.2255 44.8997 17.2442 44.9041 17.2629C44.9067 17.274 44.9091 17.285 44.9115 17.296C44.9151 17.3126 44.9188 17.3291 44.922 17.3455C44.9245 17.3583 44.9267 17.371 44.9289 17.3837C44.9317 17.3991 44.9344 17.4144 44.9368 17.4296C44.9394 17.4469 44.9413 17.4641 44.9435 17.4812C44.9448 17.4921 44.9466 17.5029 44.9477 17.5137C44.9487 17.5232 44.9491 17.5327 44.9499 17.5421C44.9539 17.5867 44.9567 17.6303 44.9567 17.6729C44.9567 18.3848 44.7132 19.0398 44.3051 19.5592C44.2748 19.5977 44.2436 19.6354 44.2116 19.6724C44.1475 19.7463 44.0801 19.8172 44.0094 19.8847C43.974 19.9184 43.9378 19.9513 43.9009 19.9833C43.7654 20.1007 43.6193 20.2061 43.4645 20.2985C43.4082 20.3321 43.3508 20.3642 43.2922 20.3942C43.2703 20.4055 43.2482 20.4164 43.226 20.4271C43.1815 20.4486 43.1364 20.4689 43.0907 20.4882C43.0678 20.4979 43.0448 20.5072 43.0216 20.5164C42.9522 20.5437 42.8817 20.5688 42.81 20.5911C42.6904 20.6283 42.5676 20.6584 42.4422 20.6808C42.3951 20.6892 42.3476 20.6962 42.2998 20.7025C42.2712 20.7062 42.2425 20.7096 42.2136 20.7125C42.1366 20.7204 42.0587 20.7255 41.9801 20.7275C41.954 20.7282 41.9277 20.7284 41.9014 20.7284L41.8224 20.7273C41.7534 20.7256 41.6851 20.7213 41.6173 20.715C41.6061 20.714 41.5949 20.713 41.5838 20.7119C41.5398 20.7073 41.4962 20.7017 41.4529 20.6953C41.4487 20.6947 41.4444 20.6942 41.4401 20.6935C41.4307 20.6921 41.4214 20.6906 41.412 20.6891C41.3951 20.6863 41.3782 20.6836 41.3614 20.6806C41.2736 20.6649 41.187 20.6454 41.1019 20.6224C41.0682 20.6133 41.0346 20.6036 41.0013 20.5933C40.9877 20.5891 40.9741 20.5847 40.9606 20.5803C40.9501 20.5769 40.9395 20.5738 40.929 20.5703C40.8907 20.5574 40.8528 20.5437 40.8152 20.5293C40.8065 20.5261 40.7978 20.5229 40.7892 20.5195C40.7757 20.5142 40.7624 20.5086 40.749 20.5032C40.74 20.4995 40.731 20.4959 40.7221 20.4922C40.7092 20.4868 40.6963 20.4813 40.6834 20.4757C40.6732 20.4712 40.663 20.4668 40.6528 20.4622C40.6415 20.4572 40.6302 20.452 40.619 20.4468C40.6086 20.442 40.5981 20.4372 40.5877 20.4323C40.5724 20.425 40.5573 20.4172 40.5421 20.4097C40.5357 20.4065 40.5294 20.4035 40.5231 20.4003C40.5065 20.3919 40.49 20.3832 40.4736 20.3746C40.4696 20.3724 40.4655 20.3704 40.4615 20.3683C40.4455 20.3597 40.4295 20.351 40.4137 20.3421C40.4069 20.3383 40.4001 20.3346 40.3933 20.3307C40.3811 20.3238 40.369 20.3166 40.3569 20.3095C40.3471 20.3038 40.3374 20.2981 40.3278 20.2922C40.316 20.2852 40.3043 20.278 40.2927 20.2708C40.2856 20.2664 40.2786 20.262 40.2716 20.2576C40.1939 20.2085 40.1185 20.156 40.0457 20.1003C40.0409 20.0966 40.0362 20.0928 40.0314 20.0891C39.9979 20.0632 39.9649 20.0366 39.9325 20.0093C39.9288 20.0061 39.9251 20.0029 39.9213 19.9997C39.8882 19.9714 39.8555 19.9425 39.8236 19.9129C39.8203 19.9099 39.8172 19.9067 39.814 19.9037C39.7819 19.8736 39.7504 19.843 39.7196 19.8115C39.7165 19.8084 39.7135 19.8053 39.7104 19.8022C39.6802 19.771 39.6505 19.7393 39.6216 19.7069C39.6169 19.7016 39.6124 19.6963 39.6077 19.691C39.5811 19.6607 39.5549 19.6301 39.5295 19.5988C39.5247 19.593 39.52 19.5872 39.5154 19.5814C39.4888 19.5482 39.4629 19.5145 39.4377 19.4803C39.4356 19.4774 39.4336 19.4744 39.4315 19.4716C39.4055 19.436 39.3803 19.3998 39.3559 19.3631C39.3508 19.3554 39.3457 19.3477 39.3407 19.34C39.3335 19.3291 39.3264 19.3182 39.3194 19.3071C39.3141 19.2987 39.3088 19.2903 39.3035 19.2819C39.2954 19.2687 39.2874 19.2554 39.2794 19.2421C39.2753 19.2353 39.2713 19.2285 39.2673 19.2217C39.2472 19.1876 39.2277 19.1532 39.2089 19.1184C39.2038 19.1089 39.1989 19.0993 39.1939 19.0897C39.178 19.0593 39.1624 19.0286 39.1474 18.9976L39.1385 18.9788C39.1363 18.9743 39.1343 18.9698 39.1322 18.9654C39.1249 18.9497 39.1176 18.934 39.1105 18.9182C39.1066 18.9095 39.1029 18.9007 39.0991 18.892C39.0737 18.8337 39.05 18.7745 39.0282 18.7144C39.0257 18.7074 39.0233 18.7004 39.0208 18.6934C39.0074 18.6554 38.9945 18.6172 38.9826 18.5786C38.9702 18.5389 38.9588 18.4989 38.9481 18.4585C38.8816 18.2078 38.8461 17.9445 38.8461 17.6729C38.8461 17.6213 38.849 17.5682 38.8548 17.5137C38.856 17.5029 38.8577 17.4921 38.8591 17.4812C38.8612 17.4642 38.8631 17.4469 38.8658 17.4296C38.8681 17.4143 38.8711 17.3991 38.8738 17.3837C38.8761 17.3708 38.8782 17.3578 38.8808 17.3448C38.8827 17.3347 38.8849 17.3247 38.887 17.3146C38.8911 17.2951 38.8953 17.2755 38.9 17.2558C38.9026 17.245 38.9054 17.2343 38.9081 17.2235C38.9124 17.2063 38.9167 17.1889 38.9215 17.1714C38.9259 17.1553 38.9306 17.1392 38.9354 17.1229C38.9394 17.1091 38.9434 17.0952 38.9477 17.0813C38.9524 17.0659 38.9576 17.0505 38.9626 17.035C38.9678 17.019 38.973 17.0028 38.9785 16.9867C38.9826 16.9748 38.9866 16.963 38.9908 16.9511C38.9974 16.9323 39.0042 16.9134 39.0112 16.8945C39.018 16.8762 39.025 16.8578 39.0322 16.8393C39.0361 16.8292 39.0401 16.8192 39.0441 16.8091C39.0511 16.7913 39.0584 16.7735 39.0658 16.7556C39.0748 16.7337 39.084 16.7117 39.0935 16.6896C39.0974 16.6806 39.1012 16.6716 39.1051 16.6625C39.1134 16.6435 39.122 16.6244 39.1306 16.6053C39.136 16.5934 39.1413 16.5814 39.1467 16.5695C39.1569 16.5474 39.1673 16.5253 39.1778 16.5031C39.1806 16.4973 39.1833 16.4916 39.1861 16.4858L39.208 16.4407C39.2135 16.4294 39.2192 16.4182 39.2248 16.4069C39.2316 16.3933 39.2383 16.3796 39.2452 16.3659C39.2701 16.3167 39.2961 16.2672 39.3228 16.2174C39.3383 16.1884 39.3543 16.1594 39.3704 16.1302C39.3937 16.0879 39.4174 16.0454 39.4418 16.0029C39.4569 15.9766 39.4724 15.9503 39.4878 15.9239C39.5127 15.8817 39.5379 15.8393 39.5637 15.7969C39.5786 15.7723 39.5939 15.7479 39.6091 15.7233C39.6362 15.6795 39.6635 15.6356 39.6914 15.5918C39.7066 15.568 39.7219 15.5442 39.7373 15.5204C39.7675 15.4737 39.798 15.427 39.829 15.3804C39.8418 15.3611 39.8547 15.3418 39.8677 15.3225C39.9024 15.2707 39.9375 15.2191 39.973 15.1677C39.9825 15.154 39.9919 15.1404 40.0014 15.1267C40.0873 15.0031 40.1748 14.8806 40.2629 14.7604C40.2712 14.7491 40.2795 14.7378 40.2877 14.7266C40.5223 14.4078 40.7597 14.105 40.9776 13.8348C40.9907 13.8185 41.0037 13.8023 41.0167 13.7862C41.4894 13.2021 41.8621 12.7796 41.9014 12.6962Z" fill="url(#paint1_linear_0_13)"/>
<path d="M41.9008 12.6815C41.9012 12.6814 41.9016 12.6815 41.902 12.6816L41.9034 12.6821C41.9039 12.6822 41.9044 12.6827 41.9045 12.6833C41.9045 12.6834 41.9045 12.6835 41.9046 12.6836C41.9056 12.686 41.9044 12.6899 41.9014 12.6962C41.8984 12.6898 41.897 12.6858 41.898 12.6835C41.8984 12.6823 41.8993 12.6816 41.9008 12.6815Z" fill="url(#paint2_linear_0_13)"/>
<path d="M13.9849 24.2098C11.0164 24.2098 8.48771 23.693 6.39876 22.6595C4.33181 21.6041 2.74861 20.1638 1.64917 18.3387C0.549722 16.5136 0 14.4467 0 12.1379C0 9.80704 0.538727 7.72909 1.61618 5.90401C2.71563 4.07894 4.30982 2.63867 6.39876 1.5832C8.48771 0.527734 11.0164 0 13.9849 0C16.9754 0 19.5041 0.527734 21.5711 1.5832C23.66 2.61668 25.2432 4.04595 26.3207 5.87103C27.4201 7.69611 27.9698 9.78505 27.9698 12.1379C27.9698 14.4467 27.4201 16.5136 26.3207 18.3387C25.2432 20.1638 23.66 21.6041 21.5711 22.6595C19.5041 23.693 16.9754 24.2098 13.9849 24.2098ZM13.9849 19.1963C16.2278 19.1963 18.0089 18.6136 19.3282 17.4482C20.6476 16.2608 21.3072 14.6226 21.3072 12.5337V11.6761C21.3072 9.58715 20.6476 7.95997 19.3282 6.79456C18.0089 5.60716 16.2278 5.01346 13.9849 5.01346C11.7421 5.01346 9.96096 5.60716 8.64163 6.79456C7.32229 7.95997 6.66263 9.58715 6.66263 11.6761V12.5337C6.66263 14.6226 7.32229 16.2608 8.64163 17.4482C9.96096 18.6136 11.7421 19.1963 13.9849 19.1963Z" fill="#333333"/>
<defs>
<linearGradient id="paint0_linear_0_13" x1="88.579" y1="7.36772" x2="88.579" y2="1.10224" gradientUnits="userSpaceOnUse">
<stop stop-color="#0B6FF9"/>
<stop offset="1" stop-color="#5B91F5"/>
</linearGradient>
<linearGradient id="paint1_linear_0_13" x1="41.8913" y1="20.9885" x2="41.8913" y2="13.8879" gradientUnits="userSpaceOnUse">
<stop stop-color="#0B6FF9"/>
<stop offset="1" stop-color="#5B91F5"/>
</linearGradient>
<linearGradient id="paint2_linear_0_13" x1="41.8913" y1="20.9885" x2="41.8913" y2="13.8879" gradientUnits="userSpaceOnUse">
<stop stop-color="#0B6FF9"/>
<stop offset="1" stop-color="#5B91F5"/>
</linearGradient>
</defs>
</svg>
