<svg width="22" height="25" viewBox="0 0 22 25" fill="none" xmlns="http://www.w3.org/2000/svg">
<rect y="0.5" width="22" height="23.8333" rx="3.66667" fill="#FE2B16"/>
<path d="M4.81348 14.5L4.81348 9.55078L6.75488 9.55078C7.88281 9.55078 8.52539 10.2412 8.52539 11.2188C8.52539 12.21 7.86914 12.8867 6.72754 12.8867L5.83887 12.8867L5.83887 14.5L4.81348 14.5ZM5.83887 12.0596L6.56348 12.0596C7.17188 12.0596 7.46582 11.7178 7.46582 11.2188C7.46582 10.7266 7.17188 10.3916 6.56348 10.3916L5.83887 10.3916L5.83887 12.0596ZM10.918 14.5L9.1748 14.5L9.1748 9.55078L10.9385 9.55078C12.4287 9.55078 13.3379 10.4805 13.3379 12.0186C13.3379 13.5703 12.4287 14.5 10.918 14.5ZM10.2002 13.6182L10.877 13.6182C11.8203 13.6182 12.3125 13.126 12.3125 12.0186C12.3125 10.918 11.8203 10.4326 10.8838 10.4326L10.2002 10.4326L10.2002 13.6182ZM14.083 14.5L14.083 9.55078L17.3438 9.55078L17.3438 10.3984L15.1084 10.3984L15.1084 11.6016L17.1318 11.6016L17.1318 12.4492L15.1084 12.4492L15.1084 14.5L14.083 14.5Z" fill="white"/>
</svg>
