<svg width="19" height="19" viewBox="0 0 19 19" fill="none" xmlns="http://www.w3.org/2000/svg">
<path fill-rule="evenodd" clip-rule="evenodd" d="M6.4071 11.688C6.66796 11.9489 6.66796 12.3718 6.4071 12.6327L4.18055 14.8592C3.91969 15.1201 3.49676 15.1201 3.2359 14.8592C2.97504 14.5983 2.97504 14.1754 3.2359 13.9146L5.46245 11.688C5.72331 11.4272 6.14624 11.4272 6.4071 11.688Z" fill="#47484C"/>
<path fill-rule="evenodd" clip-rule="evenodd" d="M10.5864 2.65996C10.7717 2.4746 11.0722 2.47444 11.2578 2.6596L15.4437 6.83662C15.5329 6.92566 15.5831 7.04653 15.5832 7.1726C15.5832 7.29866 15.5332 7.41958 15.444 7.50872L11.4349 11.5179C11.926 12.7152 11.7188 14.1311 10.8021 15.1423C10.7148 15.2386 10.5918 15.295 10.4618 15.2981C10.3319 15.3013 10.2063 15.2511 10.1143 15.1592L2.93594 7.98075C2.84401 7.88882 2.79377 7.76322 2.79696 7.63324C2.80014 7.50327 2.85646 7.38028 2.95279 7.29296C3.96577 6.37465 5.3849 6.16835 6.58353 6.66281L10.5864 2.65996ZM10.583 11.0263L14.4361 7.17321L10.9226 3.66723L7.01877 7.57107C6.8702 7.71963 6.64168 7.75294 6.45688 7.65297C5.68792 7.23698 4.75053 7.25122 3.99628 7.69759L10.3975 14.0988C10.8439 13.3446 10.8581 12.4072 10.4421 11.6382C10.3625 11.491 10.3662 11.3128 10.4519 11.169C10.4859 11.112 10.5308 11.0637 10.583 11.0263Z" fill="#47484C"/>
</svg>
