<svg width="11" height="11" viewBox="0 0 11 11" fill="none" xmlns="http://www.w3.org/2000/svg">
<path d="M9.79641 5.50017C9.79641 5.63692 9.74209 5.76806 9.64539 5.86476C9.5487 5.96145 9.41755 6.01578 9.2808 6.01578H6.01527V9.2813C6.01527 9.41805 5.96095 9.5492 5.86426 9.64589C5.76756 9.74259 5.63641 9.79691 5.49966 9.79691C5.36292 9.79691 5.23177 9.74259 5.13507 9.64589C5.03838 9.5492 4.98406 9.41805 4.98406 9.2813V6.01578H1.71853C1.58178 6.01578 1.45063 5.96145 1.35394 5.86476C1.25724 5.76806 1.20292 5.63692 1.20292 5.50017C1.20292 5.36342 1.25724 5.23227 1.35394 5.13558C1.45063 5.03888 1.58178 4.98456 1.71853 4.98456H4.98406V1.71903C4.98406 1.58229 5.03838 1.45114 5.13507 1.35444C5.23177 1.25775 5.36292 1.20342 5.49966 1.20342C5.63641 1.20342 5.76756 1.25775 5.86426 1.35444C5.96095 1.45114 6.01527 1.58229 6.01527 1.71903V4.98456H9.2808C9.41755 4.98456 9.5487 5.03888 9.64539 5.13558C9.74209 5.23227 9.79641 5.36342 9.79641 5.50017Z" fill="#47484C"/>
</svg>
