<svg width="20" height="20" viewBox="0 0 20 20" fill="none" xmlns="http://www.w3.org/2000/svg">
<path fill-rule="evenodd" clip-rule="evenodd" d="M8.75008 2.75033C5.43627 2.75033 2.75008 5.43651 2.75008 8.75032C2.75008 12.0641 5.43627 14.7503 8.75008 14.7503C12.0639 14.7503 14.7501 12.0641 14.7501 8.75032C14.7501 5.43651 12.0639 2.75033 8.75008 2.75033ZM1.41675 8.75032C1.41675 4.70013 4.69989 1.41699 8.75008 1.41699C12.8003 1.41699 16.0834 4.70013 16.0834 8.75032C16.0834 12.8005 12.8003 16.0837 8.75008 16.0837C4.69989 16.0837 1.41675 12.8005 1.41675 8.75032Z" fill="#47484C"/>
<path fill-rule="evenodd" clip-rule="evenodd" d="M14.2216 13.2793L18.3899 17.4475C18.6503 17.7078 18.6503 18.1299 18.39 18.3903C18.1296 18.6506 17.7075 18.6506 17.4471 18.3903L13.2788 14.2221L14.2216 13.2793Z" fill="#47484C"/>
</svg>
