<svg width="16" height="16" viewBox="0 0 16 16" fill="none" xmlns="http://www.w3.org/2000/svg">
<path d="M8 10.5C9.38071 10.5 10.5 9.38071 10.5 8C10.5 6.61929 9.38071 5.5 8 5.5C6.61929 5.5 5.5 6.61929 5.5 8C5.5 9.38071 6.61929 10.5 8 10.5Z" stroke="#47484C" stroke-width="1.2" stroke-linecap="round" stroke-linejoin="round"/>
<path d="M12.9333 10.0333C12.8333 10.2333 12.8333 10.4667 12.9 10.6667L13.8 12.3333C13.9333 12.6 13.8333 12.9333 13.6 13.1L12.9 13.8C12.6667 14.0333 12.3333 14.1333 12.0667 14L10.4 13.1C10.2 13.0333 9.96667 13.0333 9.76667 13.1333C9.56667 13.2333 9.43333 13.4 9.33333 13.6L8.93333 15.4C8.86667 15.7333 8.6 16 8.26667 16H7.13333C6.8 16 6.53333 15.7333 6.46667 15.4L6.06667 13.6C5.96667 13.4 5.83333 13.2333 5.63333 13.1333C5.43333 13.0333 5.2 13.0333 5 13.1L3.33333 14C3.06667 14.1333 2.73333 14.0333 2.5 13.8L1.8 13.1C1.56667 12.9333 1.46667 12.6 1.6 12.3333L2.5 10.6667C2.56667 10.4667 2.56667 10.2333 2.46667 10.0333C2.36667 9.83333 2.2 9.7 2 9.6L0.2 9.2C-0.133333 9.13333 -0.4 8.86667 -0.4 8.53333V7.46667C-0.4 7.13333 -0.133333 6.86667 0.2 6.8L2 6.4C2.2 6.3 2.36667 6.16667 2.46667 5.96667C2.56667 5.76667 2.56667 5.53333 2.5 5.33333L1.6 3.66667C1.46667 3.4 1.56667 3.06667 1.8 2.9L2.5 2.2C2.73333 1.96667 3.06667 1.86667 3.33333 2L5 2.9C5.2 2.96667 5.43333 2.96667 5.63333 2.86667C5.83333 2.76667 5.96667 2.6 6.06667 2.4L6.46667 0.6C6.53333 0.266667 6.8 0 7.13333 0H8.26667C8.6 0 8.86667 0.266667 8.93333 0.6L9.33333 2.4C9.43333 2.6 9.56667 2.76667 9.76667 2.86667C9.96667 2.96667 10.2 2.96667 10.4 2.9L12.0667 2C12.3333 1.86667 12.6667 1.96667 12.9 2.2L13.6 2.9C13.8333 3.06667 13.9333 3.4 13.8 3.66667L12.9 5.33333C12.8333 5.53333 12.8333 5.76667 12.9333 5.96667C13.0333 6.16667 13.2 6.3 13.4 6.4L15.2 6.8C15.5333 6.86667 15.8 7.13333 15.8 7.46667V8.53333C15.8 8.86667 15.5333 9.13333 15.2 9.2L13.4 9.6C13.2 9.7 13.0333 9.83333 12.9333 10.0333Z" stroke="#47484C" stroke-width="1.2" stroke-linecap="round" stroke-linejoin="round"/>
</svg>
