<svg width="16" height="16" viewBox="0 0 16 16" fill="none" xmlns="http://www.w3.org/2000/svg">
<path fill-rule="evenodd" clip-rule="evenodd" d="M3.8512 6.81543C4.50576 6.81543 5.03639 7.34606 5.03639 8.00061C5.03639 8.65517 4.50576 9.1858 3.8512 9.1858C3.19664 9.1858 2.66602 8.65517 2.66602 8.00061C2.66602 7.34606 3.19664 6.81543 3.8512 6.81543ZM7.99866 6.81543C8.65322 6.81543 9.18385 7.34606 9.18385 8.00061C9.18385 8.65517 8.65322 9.1858 7.99866 9.1858C7.3441 9.1858 6.81348 8.65517 6.81348 8.00061C6.81348 7.34606 7.3441 6.81543 7.99866 6.81543ZM12.147 6.81543C12.8016 6.81543 13.3322 7.34606 13.3322 8.00061C13.3322 8.65517 12.8016 9.1858 12.147 9.1858C11.4925 9.1858 10.9618 8.65517 10.9618 8.00061C10.9618 7.34606 11.4925 6.81543 12.147 6.81543Z" fill="#47484C"/>
</svg>
