<svg width="22" height="25" viewBox="0 0 22 25" fill="none" xmlns="http://www.w3.org/2000/svg">
<rect y="0.5" width="22" height="23.8333" rx="3.66667" fill="#BAC0CB"/>
<path d="M4.32813 10.3984L4.32813 9.55078L8.38184 9.55078L8.38184 10.3984L6.86426 10.3984L6.86426 14.5L5.8457 14.5L5.8457 10.3984L4.32813 10.3984ZM9.96777 9.55078L10.9795 11.2529L11.0137 11.2529L12.0322 9.55078L13.1943 9.55078L11.6836 12.0254L13.2285 14.5L12.0391 14.5L11.0137 12.7979L10.9795 12.7979L9.9541 14.5L8.77148 14.5L10.3232 12.0254L8.79883 9.55078L9.96777 9.55078ZM13.625 10.3984L13.625 9.55078L17.6787 9.55078L17.6787 10.3984L16.1611 10.3984L16.1611 14.5L15.1426 14.5L15.1426 10.3984L13.625 10.3984Z" fill="white"/>
</svg>
