<svg width="20" height="20" viewBox="0 0 20 20" fill="none" xmlns="http://www.w3.org/2000/svg">
<path fill-rule="evenodd" clip-rule="evenodd" d="M7.62614 12.8829C7.88575 13.1425 7.88575 13.5635 7.62614 13.8231L5.41023 16.039C5.15062 16.2986 4.72971 16.2986 4.4701 16.039C4.21049 15.7794 4.21049 15.3585 4.4701 15.0988L6.68601 12.8829C6.94562 12.6233 7.36653 12.6233 7.62614 12.8829Z" fill="#579BEC"/>
<path fill-rule="evenodd" clip-rule="evenodd" d="M11.7855 3.8981C11.97 3.71363 12.269 3.71347 12.4537 3.89775L16.6196 8.05479C16.7084 8.14341 16.7584 8.2637 16.7584 8.38916C16.7585 8.51463 16.7087 8.63497 16.62 8.72368L12.63 12.7137C13.1188 13.9052 12.9126 15.3144 12.0003 16.3208C11.9134 16.4166 11.791 16.4727 11.6616 16.4759C11.5322 16.479 11.4072 16.429 11.3158 16.3375L4.17166 9.19346C4.08017 9.10196 4.03018 8.97697 4.03335 8.84761C4.03651 8.71826 4.09257 8.59586 4.18843 8.50895C5.19657 7.59503 6.60892 7.38972 7.80181 7.88181L11.7855 3.8981Z" fill="#579BEC"/>
</svg>
