<svg width="16" height="16" viewBox="0 0 16 16" fill="none" xmlns="http://www.w3.org/2000/svg">
<path fill-rule="evenodd" clip-rule="evenodd" d="M14.6687 10.4502C15.0368 10.4511 15.3346 10.7503 15.3336 11.1185L15.3248 14.6674C15.3238 15.035 15.0256 15.3324 14.6581 15.3324H1.33366C0.965469 15.3324 0.666992 15.0339 0.666992 14.6657V11.1169C0.666992 10.7487 0.965469 10.4502 1.33366 10.4502C1.70185 10.4502 2.00033 10.7487 2.00033 11.1169V13.9991H13.9931L14.0003 11.1152C14.0012 10.747 14.3005 10.4493 14.6687 10.4502Z" fill="#47484C"/>
<path fill-rule="evenodd" clip-rule="evenodd" d="M3.88607 6.09482C3.62572 5.83447 3.62572 5.41236 3.88607 5.15201L7.81444 1.22364C8.07479 0.963294 8.4969 0.963294 8.75725 1.22364L12.6856 5.15201C12.946 5.41236 12.946 5.83447 12.6856 6.09482C12.4253 6.35517 12.0032 6.35517 11.7428 6.09482L8.95251 3.30452L8.95251 10.5999C8.95251 10.9681 8.65404 11.2665 8.28585 11.2665C7.91766 11.2665 7.61918 10.9681 7.61918 10.5999L7.61918 3.30452L4.82888 6.09482C4.56853 6.35517 4.14642 6.35517 3.88607 6.09482Z" fill="#47484C"/>
</svg>
