<svg width="19" height="20" viewBox="0 0 19 20" fill="none" xmlns="http://www.w3.org/2000/svg">
<path fill-rule="evenodd" clip-rule="evenodd" d="M9.42676 1.62893C7.24497 1.62893 5.47673 3.39698 5.47673 5.57741C5.47673 7.75785 7.24497 9.5259 9.42676 9.5259C11.6086 9.5259 13.3768 7.75785 13.3768 5.57741C13.3768 3.39698 11.6086 1.62893 9.42676 1.62893ZM3.8478 5.57741C3.8478 2.49684 6.34584 0 9.42676 0C12.5077 0 15.0057 2.49684 15.0057 5.57741C15.0057 8.65798 12.5077 11.1548 9.42676 11.1548C6.34584 11.1548 3.8478 8.65798 3.8478 5.57741Z" fill="#47484C"/>
<path fill-rule="evenodd" clip-rule="evenodd" d="M9.42623 13.1958C5.6282 13.1958 2.44418 15.8311 1.60729 19.3728C1.50384 19.8106 1.06511 20.0816 0.627353 19.9781C0.189592 19.8747 -0.0814283 19.436 0.022012 18.9982C1.02874 14.7377 4.85622 11.5668 9.42623 11.5668C13.9962 11.5668 17.8237 14.7377 18.8304 18.9982C18.9339 19.436 18.6629 19.8747 18.2251 19.9781C17.7873 20.0816 17.3486 19.8106 17.2452 19.3728C16.4083 15.8311 13.2243 13.1958 9.42623 13.1958Z" fill="#47484C"/>
</svg>
