<svg width="22" height="25" viewBox="0 0 22 25" fill="none" xmlns="http://www.w3.org/2000/svg">
<rect y="0.5" width="22" height="23.8333" rx="3.66667" fill="#2F80E0"/>
<path fill-rule="evenodd" clip-rule="evenodd" d="M4.20117 6.90008C4.20117 6.40303 4.49032 6.00008 4.84701 6.00008H17.7637C18.1204 6.00008 18.4095 6.40303 18.4095 6.90008C18.4095 7.39714 18.1204 7.80008 17.7637 7.80008H4.84701C4.49032 7.80008 4.20117 7.39714 4.20117 6.90008Z" fill="white"/>
<path fill-rule="evenodd" clip-rule="evenodd" d="M4.20117 12.1876C4.20117 11.6905 4.49032 11.2876 4.84701 11.2876H14.5345C14.8912 11.2876 15.1803 11.6905 15.1803 12.1876C15.1803 12.6846 14.8912 13.0876 14.5345 13.0876H4.84701C4.49032 13.0876 4.20117 12.6846 4.20117 12.1876Z" fill="white"/>
<path fill-rule="evenodd" clip-rule="evenodd" d="M4.20117 17.4751C4.20117 16.978 4.49032 16.5751 4.84701 16.5751H11.3053C11.662 16.5751 11.9512 16.978 11.9512 17.4751C11.9512 17.9721 11.662 18.3751 11.3053 18.3751H4.84701C4.49032 18.3751 4.20117 17.9721 4.20117 17.4751Z" fill="white"/>
</svg>
