<svg width="12" height="12" viewBox="0 0 12 12" fill="none" xmlns="http://www.w3.org/2000/svg">
<path d="M9.5123 5.57817L3.94038 11.1522C3.86559 11.227 3.76355 11.2687 3.65777 11.269L1.12575 11.2752C1.01951 11.2753 0.917225 11.2325 0.842096 11.1574C0.767095 11.0822 0.725063 10.9799 0.725298 10.8737L0.730512 8.34171C0.730809 8.23601 0.773611 8.13488 0.848353 8.06014L6.42027 2.48614L9.5123 5.57817ZM8.34848 0.724776C8.45456 0.724776 8.55712 0.76657 8.63214 0.841575L11.1579 3.36838C11.3141 3.52458 11.3141 3.77739 11.1579 3.93361L10.0786 5.01295L6.98653 1.92092L8.06587 0.841575C8.14077 0.766709 8.2426 0.724904 8.34848 0.724776Z" fill="white"/>
</svg>
