<svg width="20" height="20" viewBox="0 0 20 20" fill="none" xmlns="http://www.w3.org/2000/svg">
<path d="M0.555784 5.04674C1.06405 2.81039 2.81039 1.06405 5.04674 0.555784C8.30734 -0.185261 11.6927 -0.185261 14.9533 0.555784C17.1896 1.06405 18.936 2.81039 19.4442 5.04674C20.1853 8.30734 20.1853 11.6927 19.4442 14.9533C18.936 17.1896 17.1896 18.936 14.9533 19.4442C11.6927 20.1853 8.30734 20.1853 5.04674 19.4442C2.81039 18.936 1.06405 17.1896 0.555784 14.9533C-0.185261 11.6927 -0.185261 8.30734 0.555784 5.04674Z" fill="#FF6258"/>
<path d="M5.05957 0.611328C8.31175 -0.127774 11.6882 -0.127774 14.9404 0.611328C17.1555 1.11474 18.8853 2.84454 19.3887 5.05957C20.1278 8.31175 20.1278 11.6882 19.3887 14.9404C18.8853 17.1555 17.1555 18.8853 14.9404 19.3887C11.6882 20.1278 8.31175 20.1278 5.05957 19.3887C2.84454 18.8853 1.11474 17.1555 0.611328 14.9404C-0.127774 11.6882 -0.127774 8.31175 0.611328 5.05957C1.11474 2.84454 2.84454 1.11474 5.05957 0.611328Z" stroke="black" stroke-opacity="0.1" stroke-width="0.113636"/>
<path d="M0.555784 5.04674C1.06405 2.81039 2.81039 1.06405 5.04674 0.555784C8.30734 -0.185261 11.6927 -0.185261 14.9533 0.555784C17.1896 1.06405 18.936 2.81039 19.4442 5.04674C20.1853 8.30734 20.1853 11.6927 19.4442 14.9533C18.936 17.1896 17.1896 18.936 14.9533 19.4442C11.6927 20.1853 8.30734 20.1853 5.04674 19.4442C2.81039 18.936 1.06405 17.1896 0.555784 14.9533C-0.185261 11.6927 -0.185261 8.30734 0.555784 5.04674Z" fill="white" fill-opacity="0.1"/>
<path d="M8.15488 6.47727C7.687 5.78037 7.06835 5.39327 6.27933 5.46248C4.29925 5.63617 4.09082 7.46675 4.09082 9.59633C4.09082 11.7259 4.82032 15.2934 7.59938 14.9807C8.90679 14.7749 9.6236 14.122 9.95708 13.3364C10.2906 14.122 11.0074 14.7749 12.3148 14.9807C15.0938 15.2934 15.8233 11.7259 15.8233 9.59633C15.8233 7.46675 15.6149 5.63617 13.6348 5.46248C12.8513 5.39375 12.2357 5.77503 11.769 6.46283C11.386 5.85589 10.7221 5.45454 9.96731 5.45454C9.2065 5.45454 8.5381 5.86226 8.15655 6.47727H8.15488Z" fill="white" fill-opacity="0.5"/>
</svg>
