<svg xmlns="http://www.w3.org/2000/svg" width="20" height="20" viewBox="0 0 20 20" fill="none"><path d="M0.555784 5.04674C1.06405 2.81039 2.81039 1.06405 5.04674 0.555784C8.30734 -0.185261 11.6927 -0.185261 14.9533 0.555784C17.1896 1.06405 18.936 2.81039 19.4442 5.04674C20.1853 8.30734 20.1853 11.6927 19.4442 14.9533C18.936 17.1896 17.1896 18.936 14.9533 19.4442C11.6927 20.1853 8.30734 20.1853 5.04674 19.4442C2.81039 18.936 1.06405 17.1896 0.555784 14.9533C-0.185261 11.6927 -0.185261 8.30734 0.555784 5.04674Z" fill="#00A889"></path><path d="M0.555784 5.04674C1.06405 2.81039 2.81039 1.06405 5.04674 0.555784C8.30734 -0.185261 11.6927 -0.185261 14.9533 0.555784C17.1896 1.06405 18.936 2.81039 19.4442 5.04674C20.1853 8.30734 20.1853 11.6927 19.4442 14.9533C18.936 17.1896 17.1896 18.936 14.9533 19.4442C11.6927 20.1853 8.30734 20.1853 5.04674 19.4442C2.81039 18.936 1.06405 17.1896 0.555784 14.9533C-0.185261 11.6927 -0.185261 8.30734 0.555784 5.04674Z" fill="white" fill-opacity="0.4"></path><path d="M5.05957 0.611328C8.31175 -0.127774 11.6882 -0.127773 14.9404 0.611328C17.1555 1.11474 18.8853 2.84454 19.3887 5.05957C20.1278 8.31176 20.1278 11.6882 19.3887 14.9404C18.8853 17.1555 17.1555 18.8853 14.9404 19.3887C11.6882 20.1278 8.31175 20.1278 5.05957 19.3887C2.84454 18.8853 1.11474 17.1555 0.611328 14.9404C-0.127774 11.6882 -0.127774 8.31175 0.611328 5.05957C1.11474 2.84454 2.84454 1.11474 5.05957 0.611328Z" stroke="black" stroke-opacity="0.1" stroke-width="0.113636"></path><path fill-rule="evenodd" clip-rule="evenodd" d="M13.306 5.31751C10.8145 3.85869 8.39383 4.20016 6.89485 5.05315C5.39571 5.90615 4.39091 8.5394 4.91209 11.76C5.38757 14.698 7.06451 15.9289 8.78906 15.29C9.41723 15.0573 9.84571 14.5898 10.1376 14.0897C11.0125 14.0141 12.0017 13.7993 13.024 13.3312C14.7418 12.5448 15.4691 10.7811 15.4545 9.40874C15.4691 8.03634 14.8867 6.24301 13.306 5.31751Z" fill="white" fill-opacity="0.5"></path></svg>
