<svg width="20" height="20" viewBox="0 0 20 20" fill="none" xmlns="http://www.w3.org/2000/svg">
<path d="M0.555784 5.04674C1.06405 2.81039 2.81039 1.06405 5.04674 0.555784C8.30734 -0.185261 11.6927 -0.185261 14.9533 0.555784C17.1896 1.06405 18.936 2.81039 19.4442 5.04674C20.1853 8.30734 20.1853 11.6927 19.4442 14.9533C18.936 17.1896 17.1896 18.936 14.9533 19.4442C11.6927 20.1853 8.30734 20.1853 5.04674 19.4442C2.81039 18.936 1.06405 17.1896 0.555784 14.9533C-0.185261 11.6927 -0.185261 8.30734 0.555784 5.04674Z" fill="#2E81FF"/>
<path d="M0.555784 5.04674C1.06405 2.81039 2.81039 1.06405 5.04674 0.555784C8.30734 -0.185261 11.6927 -0.185261 14.9533 0.555784C17.1896 1.06405 18.936 2.81039 19.4442 5.04674C20.1853 8.30734 20.1853 11.6927 19.4442 14.9533C18.936 17.1896 17.1896 18.936 14.9533 19.4442C11.6927 20.1853 8.30734 20.1853 5.04674 19.4442C2.81039 18.936 1.06405 17.1896 0.555784 14.9533C-0.185261 11.6927 -0.185261 8.30734 0.555784 5.04674Z" fill="white" fill-opacity="0.4"/>
<path d="M5.05957 0.611328C8.31175 -0.127774 11.6882 -0.127774 14.9404 0.611328C17.1555 1.11474 18.8853 2.84454 19.3887 5.05957C20.1278 8.31175 20.1278 11.6882 19.3887 14.9404C18.8853 17.1555 17.1555 18.8853 14.9404 19.3887C11.6882 20.1278 8.31175 20.1278 5.05957 19.3887C2.84454 18.8853 1.11474 17.1555 0.611328 14.9404C-0.127774 11.6882 -0.127774 8.31175 0.611328 5.05957C1.11474 2.84454 2.84454 1.11474 5.05957 0.611328Z" stroke="black" stroke-opacity="0.1" stroke-width="0.113636"/>
<path d="M9.9627 4.78351C8.69749 4.6085 6.13123 6.58676 5.26728 9.81715C4.40329 12.6345 5.37997 14.5879 7.44606 15.1513C8.20305 15.3578 9.10656 15.1312 9.9629 14.6239C10.8192 15.1312 11.7227 15.3577 12.4797 15.1513C14.5458 14.5878 15.5224 12.6345 14.6584 9.8171C13.7945 6.58659 11.2279 4.60832 9.9627 4.78351C9.96276 4.7835 9.96264 4.78352 9.9627 4.78351Z" fill="white" fill-opacity="0.5"/>
</svg>
