<svg width="20" height="20" viewBox="0 0 20 20" fill="none" xmlns="http://www.w3.org/2000/svg">
<path d="M0.555784 5.04674C1.06405 2.81039 2.81039 1.06405 5.04674 0.555784C8.30734 -0.185261 11.6927 -0.185261 14.9533 0.555784C17.1896 1.06405 18.936 2.81039 19.4442 5.04674C20.1853 8.30734 20.1853 11.6927 19.4442 14.9533C18.936 17.1896 17.1896 18.936 14.9533 19.4442C11.6927 20.1853 8.30734 20.1853 5.04674 19.4442C2.81039 18.936 1.06405 17.1896 0.555784 14.9533C-0.185261 11.6927 -0.185261 8.30734 0.555784 5.04674Z" fill="#FFAA00"/>
<path d="M5.05957 0.611328C8.31175 -0.127774 11.6882 -0.127774 14.9404 0.611328C17.1555 1.11474 18.8853 2.84454 19.3887 5.05957C20.1278 8.31175 20.1278 11.6882 19.3887 14.9404C18.8853 17.1555 17.1555 18.8853 14.9404 19.3887C11.6882 20.1278 8.31175 20.1278 5.05957 19.3887C2.84454 18.8853 1.11474 17.1555 0.611328 14.9404C-0.127774 11.6882 -0.127774 8.31175 0.611328 5.05957C1.11474 2.84454 2.84454 1.11474 5.05957 0.611328Z" stroke="black" stroke-opacity="0.1" stroke-width="0.113636"/>
<path d="M0.555784 5.04674C1.06405 2.81039 2.81039 1.06405 5.04674 0.555784C8.30734 -0.185261 11.6927 -0.185261 14.9533 0.555784C17.1896 1.06405 18.936 2.81039 19.4442 5.04674C20.1853 8.30734 20.1853 11.6927 19.4442 14.9533C18.936 17.1896 17.1896 18.936 14.9533 19.4442C11.6927 20.1853 8.30734 20.1853 5.04674 19.4442C2.81039 18.936 1.06405 17.1896 0.555784 14.9533C-0.185261 11.6927 -0.185261 8.30734 0.555784 5.04674Z" fill="white" fill-opacity="0.4"/>
<path d="M5.05957 0.611328C8.31175 -0.127774 11.6882 -0.127774 14.9404 0.611328C17.1555 1.11474 18.8853 2.84454 19.3887 5.05957C20.1278 8.31175 20.1278 11.6882 19.3887 14.9404C18.8853 17.1555 17.1555 18.8853 14.9404 19.3887C11.6882 20.1278 8.31175 20.1278 5.05957 19.3887C2.84454 18.8853 1.11474 17.1555 0.611328 14.9404C-0.127774 11.6882 -0.127774 8.31175 0.611328 5.05957C1.11474 2.84454 2.84454 1.11474 5.05957 0.611328Z" stroke="black" stroke-opacity="0.1" stroke-width="0.113636"/>
<path d="M15.4545 8.52274C15.4545 9.13791 15.1425 9.68021 14.6681 10C15.1425 10.3198 15.4545 10.8621 15.4545 11.4773C15.4545 12.4605 14.6574 13.2576 13.6742 13.2576C13.5068 13.2576 13.3448 13.2345 13.1913 13.1913C13.2344 13.3449 13.2575 13.5069 13.2575 13.6742C13.2575 14.6575 12.4605 15.4545 11.4772 15.4545C10.862 15.4545 10.3197 15.1425 9.99995 14.6681C9.68015 15.1425 9.13785 15.4545 8.52267 15.4545C7.53944 15.4545 6.74237 14.6575 6.74237 13.6742C6.74237 13.5069 6.76547 13.3449 6.80865 13.1913C6.65507 13.2345 6.49309 13.2576 6.32571 13.2576C5.34248 13.2576 4.54541 12.4605 4.54541 11.4773C4.54541 10.8621 4.85742 10.3198 5.33183 10C4.85742 9.68021 4.54541 9.13791 4.54541 8.52274C4.54541 7.5395 5.34248 6.74243 6.32571 6.74243C6.49315 6.74243 6.65519 6.76554 6.80881 6.80876C6.76561 6.65516 6.74251 6.49316 6.74251 6.32576C6.74251 5.34252 7.53958 4.54545 8.52282 4.54545C9.13795 4.54545 9.68021 4.85742 10 5.33178C10.3198 4.85743 10.8621 4.54546 11.4772 4.54546C12.4605 4.54546 13.2575 5.34253 13.2575 6.32576C13.2575 6.49315 13.2344 6.65514 13.1912 6.80872C13.3448 6.76553 13.5068 6.74243 13.6742 6.74243C14.6574 6.74243 15.4545 7.5395 15.4545 8.52274Z" fill="white" fill-opacity="0.5"/>
</svg>
